<svg width="25" height="24" viewBox="0 0 25 24" fill="none" xmlns="http://www.w3.org/2000/svg">
<path d="M18.543 8C18.543 6.4087 17.9108 4.88258 16.7856 3.75736C15.6604 2.63214 14.1343 2 12.543 2C10.9517 2 9.42555 2.63214 8.30033 3.75736C7.17511 4.88258 6.54297 6.4087 6.54297 8C6.54297 15 3.54297 17 3.54297 17H21.543C21.543 17 18.543 15 18.543 8Z" stroke="#5A5A75" stroke-width="2" stroke-linecap="round" stroke-linejoin="round"/>
<path d="M14.273 21C14.0972 21.3031 13.8448 21.5547 13.5412 21.7295C13.2376 21.9044 12.8934 21.9965 12.543 21.9965C12.1926 21.9965 11.8484 21.9044 11.5448 21.7295C11.2411 21.5547 10.9888 21.3031 10.813 21" stroke="#5A5A75" stroke-width="2" stroke-linecap="round" stroke-linejoin="round"/>
</svg>
