<svg width="25" height="24" viewBox="0 0 25 24" fill="none" xmlns="http://www.w3.org/2000/svg">
<path d="M12.543 2.69L18.203 8.35C19.3223 9.46861 20.0848 10.8941 20.3939 12.4461C20.703 13.998 20.5449 15.6069 19.9395 17.069C19.3342 18.5311 18.3088 19.7808 16.9931 20.6601C15.6774 21.5394 14.1305 22.0087 12.548 22.0087C10.9655 22.0087 9.41858 21.5394 8.10287 20.6601C6.78716 19.7808 5.76179 18.5311 5.15644 17.069C4.55109 15.6069 4.39297 13.998 4.70208 12.4461C5.01119 10.8941 5.77363 9.46861 6.89298 8.35L12.543 2.69Z" stroke="#5A5A75" stroke-width="2" stroke-linecap="round" stroke-linejoin="round"/>
<path d="M12.025 18.4821C9.83769 18.4821 8.06451 16.7089 8.06451 14.5216" stroke="#5A5A75" stroke-width="2" stroke-linecap="round" stroke-linejoin="round"/>
</svg>
