<svg width="25" height="24" viewBox="0 0 25 24" fill="none" xmlns="http://www.w3.org/2000/svg">
<path d="M21.383 4.60999C20.8722 4.099 20.2658 3.69364 19.5983 3.41708C18.9309 3.14052 18.2155 2.99817 17.493 2.99817C16.7705 2.99817 16.0551 3.14052 15.3876 3.41708C14.7202 3.69364 14.1137 4.099 13.603 4.60999L12.543 5.66999L11.483 4.60999C10.4513 3.5783 9.052 2.9987 7.59297 2.9987C6.13393 2.9987 4.73466 3.5783 3.70297 4.60999C2.67127 5.64169 2.09167 7.04096 2.09167 8.49999C2.09167 9.95903 2.67127 11.3583 3.70297 12.39L4.76297 13.45L12.543 21.23L20.323 13.45L21.383 12.39C21.894 11.8792 22.2993 11.2728 22.5759 10.6054C22.8524 9.93789 22.9948 9.22248 22.9948 8.49999C22.9948 7.77751 22.8524 7.0621 22.5759 6.39464C22.2993 5.72718 21.894 5.12075 21.383 4.60999V4.60999Z" stroke="#5A5A75" stroke-width="2" stroke-linecap="round" stroke-linejoin="round"/>
</svg>
