<svg width="25" height="24" viewBox="0 0 25 24" fill="none" xmlns="http://www.w3.org/2000/svg">
<path d="M21.543 11.5C21.5464 12.8199 21.238 14.1219 20.643 15.3C19.9374 16.7118 18.8527 17.8992 17.5104 18.7293C16.1681 19.5594 14.6212 19.9994 13.043 20C11.7231 20.0035 10.4211 19.6951 9.24297 19.1L3.54297 21L5.44297 15.3C4.8479 14.1219 4.53953 12.8199 4.54297 11.5C4.54358 9.92179 4.98358 8.37488 5.81369 7.03258C6.6438 5.69028 7.83122 4.6056 9.24297 3.90003C10.4211 3.30496 11.7231 2.99659 13.043 3.00003H13.543C15.6273 3.11502 17.596 3.99479 19.0721 5.47089C20.5482 6.94699 21.428 8.91568 21.543 11V11.5Z" stroke="#5A5A75" stroke-width="2" stroke-linecap="round" stroke-linejoin="round"/>
<path d="M9.87622 10C11.6711 10 15.5839 10 16.8762 10" stroke="#5A5A75" stroke-width="2" stroke-linecap="round"/>
<path d="M9.87622 14C10.9019 14 13.1378 14 13.8762 14" stroke="#5A5A75" stroke-width="2" stroke-linecap="round"/>
</svg>
